<svg xmlns="http://www.w3.org/2000/svg" xmlns:xlink="http://www.w3.org/1999/xlink" width="625.048" height="162.56" viewBox="0 0 625.048 162.56">
  <defs>
    <linearGradient id="linear-gradient" x1="0.5" x2="0.5" y2="1" gradientUnits="objectBoundingBox">
      <stop offset="0" stop-color="#01adb7"/>
      <stop offset="1" stop-color="#f9a197"/>
    </linearGradient>
    <linearGradient id="linear-gradient-3" x1="0.65" y1="0.375" x2="0.136" y2="0.96" gradientUnits="objectBoundingBox">
      <stop offset="0" stop-color="#01adb7"/>
      <stop offset="0.467" stop-color="#f9a197"/>
      <stop offset="1" stop-color="#f9a197"/>
    </linearGradient>
  </defs>
  <g id="Group_17591" data-name="Group 17591" transform="translate(-534.835 -490)">
    <g id="Group_5" data-name="Group 5" transform="translate(222.306 336.875)">
      <path id="Path_24" data-name="Path 24" d="M351.7,192.381a1.854,1.854,0,0,0,1.663,2.849,9.754,9.754,0,0,1,5.748,1.753,1.855,1.855,0,0,0,2.971-1.436c.161-3.08-1.262-5.777-3.687-6.516S353.284,189.733,351.7,192.381Z" transform="translate(-7.798 -7.165)" fill="url(#linear-gradient)"/>
      <path id="Path_25" data-name="Path 25" d="M478.491,198.289a9.767,9.767,0,0,1,6-.289,1.853,1.853,0,0,0,2.311-2.353c-.884-2.954-3.135-5.013-5.668-4.891s-4.574,2.386-5.173,5.413A1.853,1.853,0,0,0,478.491,198.289Z" transform="translate(-32.78 -7.549)" fill="url(#linear-gradient)"/>
      <path id="Path_26" data-name="Path 26" d="M483.647,308.971a14.008,14.008,0,0,0,2.212-7.551c0-7.529-5.859-14.345-16.183-15.037a3.2,3.2,0,0,0-.446-.083c-13.8-14.155-20.132-48.441-16.378-69.043,12.56-.98,21.394-8.358,24.693-20.955,1.458-5.569-1.129-9.86-6.484-10.88a6.707,6.707,0,0,1-5.335-4.764c-.031-.086-.065-.171-.1-.254-5.066-11.23-13.837-12.621-19.652-13.136,0-.022.022-.066,0-.066-2.1.122-4.708.113-3.317-1.431,3.712-4.117,4.364-6.062,4.792-7.559.944-3.307-2.564-5.467-5.193-5.033-14.439,2.384-28.594,15.281-36.075,32.766-.978,2.285-2.64,6.206-4.72,11.239-2.641-6.342-8.018-21.625-23.512-29.674a37.961,37.961,0,0,0-20.542-4.225c-5.851.357-18.014,1.094-24.572,15.8-.2.2-1.8,1.552-8.7,2.291a79.174,79.174,0,0,1-8.2.416h-.039a3.359,3.359,0,0,0-3.357,3.314c-.245,19.051,8.342,27.349,14.784,30.888a.271.271,0,0,0,.025.017c3.879,2.336,8.779,2.886,13.325,2.886,2.466,0,4.711-.16,6.384-.328,1.261,7.963,3.607,40.177-12.342,67.825-10.237.76-16,7.576-16,15.028a14.009,14.009,0,0,0,2.212,7.551s3.619,6.713,14.668,6.713h36.076a3.357,3.357,0,1,0,0-6.713H334.48c-6.257,0-9.058-3.794-9.058-7.551,0-4.784,4.178-8.162,10.6-8.364,2.946.654,6.515,2.325,7.981,6.5a3.357,3.357,0,1,0,6.336-2.223,16.074,16.074,0,0,0-8.761-9.477c14.945-27.3,13.815-58.754,12.186-69.523a29.463,29.463,0,0,0-1.237-4.828,3.355,3.355,0,0,0-3.606-1.94c-2.919.477-10.861,1.313-16.362-.532q-.24-.082-.464-.167c-6.017-2.622-10-7.776-11.78-15.13,2.179-.494,5.337-2.271,7.39-8.071,6.337-1,9.932-2.862,11.229-5.785,3.1-6.987,7.509-9.826,12.384-11.041,2.522-.628,9.02-1.508,14.545,2.191a9.5,9.5,0,0,1,3.538,4.894c1.249,3.613.346,7.652-2.543,11.37-7.487,9.636-9.377,14.553-8.686,20.946a11.836,11.836,0,0,0,6.186,9.3,16.285,16.285,0,0,0,16.152-.214c5.253-3.243,8.3-9.014,9.771-18.743,0-.018.008-.035.011-.054a44.748,44.748,0,0,0-5.785-10.876,32.623,32.623,0,0,1-.213,9.748c-1.6,7.266-2.623,10.91-6.708,13.879a9.572,9.572,0,0,1-9.972.388,5.157,5.157,0,0,1-2.766-4.154c-.374-3.457.013-6.712,7.312-16.106,4.6-5.919,6.055-13.425,2.554-20.047a21.275,21.275,0,0,1,2.725,1.657v0a42.545,42.545,0,0,1,9.581,9.277c1.42,1.83,6.4,8.393,10.837,21.709-10.152,25.211-25,64.832-25,80.926a28.747,28.747,0,0,0,57.494,0c0-8.713-5.192-27.3-15.43-55.234-2.341-6.384-4.715-12.621-6.939-18.311l-3.411,9.708c8.967,23.514,19.064,52.87,19.064,63.838a22.032,22.032,0,1,1-44.063,0c0-17.011,19.094-64.989,25.519-80.85l0-.01c3.584-8.85,6.362-15.386,7.263-17.491,4.76-11.13,14.383-23.151,26.105-27.467-8.76,8.389-5.623,12.783-2.417,12.783h8.68c5.4.444,11.029,1.051,14.729,9.148a13.493,13.493,0,0,0,7.805,8.236c-.785,1.97-1.391,5.349,2.508,7.114-2.953,6.973-9.425,13.471-23.444,12.07a3.357,3.357,0,0,0-.667,6.681c.134.014.266.021.4.034-1.73,10.709-1.1,24.725,1.755,38.088,2.969,13.887,7.992,25.44,14.347,33.176a15.959,15.959,0,0,0-7.585,8.888,3.357,3.357,0,1,0,6.335,2.223c1.459-4.158,5-5.832,7.935-6.494,13.88.651,13.279,15.9,1.246,15.9h-38.5a3.357,3.357,0,0,0,0,6.713h38.5C480.706,315.684,483.647,308.971,483.647,308.971Z" transform="translate(0)" fill="url(#linear-gradient-3)"/>
    </g>
    <g id="Group_6" data-name="Group 6" transform="translate(-1375.276 -164.429)">
      <path id="Path_635" data-name="Path 635" d="M4.805-63.86q.62-6.975,1.085-9.455A23.788,23.788,0,0,1,8.99-82a21.461,21.461,0,0,0-2.945-.775A10.883,10.883,0,0,1,3.1-83.7,5.568,5.568,0,0,1,1.4-88.04q0-5.425,3.41-6.82a62.775,62.775,0,0,1,22.94-4.34q27.745,0,45.725,20.615.155,2.17.155,4.03,0,16.9-18.6,28.21Q47.12-41.54,21.08-32.085a34.424,34.424,0,0,0,.775,10.23,61.759,61.759,0,0,1,1.4,9.765,16.587,16.587,0,0,1-.465,4.03,11.256,11.256,0,0,1-4.262,5.735A11.9,11.9,0,0,1,11.315,0a15.771,15.771,0,0,1-3.1-.31L4.805-3.875A211.373,211.373,0,0,1,3.1-31.31Q3.1-45.26,4.805-63.86Zm17.05-3.565a42.013,42.013,0,0,1-.775,6.432,42.259,42.259,0,0,0-.775,6.123q0,3.875,2.48,4.727a16.1,16.1,0,0,0,5.27.852q8.68,0,17.36-6.82t10.85-15.5Q38.13-85.25,26.97-85.25a23.061,23.061,0,0,0-5.89.775q-.155,0,1.4,1.55Q24.49-80.91,24.49-79.36a20.318,20.318,0,0,1-1.317,6.045A20.193,20.193,0,0,0,21.855-67.425ZM61.535-43.71q-.155-10.54,6.2-17.593A20.924,20.924,0,0,1,84.01-68.355q10.54,0,18.677,7.982T110.67-41.7q-1.4,4.34-11.625,10.385-12.71,7.6-14.1,8.99-2.635,1.24-2.635,2.635,0,2.48,3.41,4.418A12.594,12.594,0,0,0,91.76-13.33q5.115,0,14.725-4.96a6.932,6.932,0,0,1,2.945,5.89,8.846,8.846,0,0,1-1.86,5.425,7.235,7.235,0,0,1-4.805,2.945A113.355,113.355,0,0,1,90.21-2.48a23.045,23.045,0,0,1-9.455-1.86Q62.31-12.555,61.535-43.71Zm16.9,7.9q13.795-.62,16.74-9.765a5.5,5.5,0,0,0,.62-2.48q0-3.255-3.41-5.27a14.649,14.649,0,0,0-7.6-2.015,10.465,10.465,0,0,0-5.27,1.24Q75.02-51.77,75.02-44.33,75.02-36.115,78.43-35.805Zm42.625-33.48L123.38-85.1q.62-6.2,8.06-6.2a15.238,15.238,0,0,1,8.37,2.48q1.86,1.86.775,5.27-6.045,13.02-6.045,31.62,14.725-1.395,14.1-1.4,8.06,0,8.06,4.495a7.367,7.367,0,0,1-.31,2.015q-1.55,4.96-9.92,6.045-2.945.465-14.57.465a31.02,31.02,0,0,0-.31,5.115q0,7.44,2.015,30.845,1.705,21.855,1.4,26.195-.31,5.27-5.425,5.27-4.8,0-6.51-4.96-1.4-3.875-2.945-31.31-1.4-26.195-3.875-30.69-6.355,4.8-12.555,4.8a8.319,8.319,0,0,1-4.96-1.55A5.042,5.042,0,0,1,96.1-40.92q0-3.255,4.03-5.89a69.686,69.686,0,0,1,9.765-2.79q6.045-1.24,8.06-3.72t2.48-7.44Q120.745-65.1,121.055-69.285Z" transform="translate(2107.812 784.429)" fill="#f9a197"/>
      <path id="Path_634" data-name="Path 634" d="M8.68-63.705Q4.34-80.91,5.115-92.07a5.171,5.171,0,0,1,.93-2.712q.93-1.472,1.86-1.473A54.2,54.2,0,0,1,25.73-99.2a54.08,54.08,0,0,1,26.04,6.51q2.17,1.085,2.17,2.79,0,2.945-5.58,6.355A11.585,11.585,0,0,1,43.4-82.46q-3.1,0-10.54-3.1-6.665-2.79-10.85-2.17a48.214,48.214,0,0,0-.465,6.82,78.551,78.551,0,0,0,2.17,16.585q2.015,8.06,4.03,16.275a45.846,45.846,0,0,0,7.44-.465q6.045-.62,8.37-.62,9.455,0,9.145,6.51-.155,4.185-9.455,4.8-10.075.62-11.16,2.868A10.741,10.741,0,0,0,31-30.225q0,3.72,3.1,10.385A85.8,85.8,0,0,1,38.44-9.145a7.02,7.02,0,0,1,.465,2.48A5.7,5.7,0,0,1,36.347-1.86,9.4,9.4,0,0,1,30.69,0a6.63,6.63,0,0,1-4.34-1.4q-4.34-4.34-6.665-15.888T13.64-33.17a1.11,1.11,0,0,0-1.085-.62q-.31,0-2.557.465a8.262,8.262,0,0,1-3.487.155q-4.34-1.085-4.34-4.34a3.51,3.51,0,0,1,.852-2.17A20.736,20.736,0,0,1,7.75-43.09q3.255-2.015,3.642-3.565a13.375,13.375,0,0,0,.388-3.255A28.81,28.81,0,0,0,10.7-56.885Q9.61-60.3,8.68-63.705ZM57.97-55.49q.155-4.03.542-8.37a8.09,8.09,0,0,1,3.333-6.355,14.093,14.093,0,0,1,5.27-.93q7.905,0,7.905,5.58l-.62,15.19a83.959,83.959,0,0,0,.62,15.19l2.48,10.85q2.015,6.82,4.805,6.82a4.107,4.107,0,0,0,2.015-.62Q97.185-26.97,97.185-44.8A34.182,34.182,0,0,0,92.07-63.24q-2.79-4.495-2.79-8.06,0-4.495,6.2-4.5,6.045,0,10.7,6.82a24.01,24.01,0,0,1,4.495,12.71,71.865,71.865,0,0,1-3.72,28.83Q101.525-12.4,89.745-7.285a23.339,23.339,0,0,1-8.99,2.015q-11.78,0-17.98-15.19Q57.66-32.7,57.66-49.6A53.386,53.386,0,0,1,57.97-55.49Zm59.675,21.855q0-2.48-.387-7.9t-.388-8.06a27.8,27.8,0,0,1,1.4-9.61q1.4-3.255,5.89-3.255,5.115,0,6.355,4.03a6.87,6.87,0,0,1,.31,2.17,20.348,20.348,0,0,1-.852,4.727,20.475,20.475,0,0,0-.853,4.882q1.4,1.24,1.4,1.86,5.27-8.68,6.975-10.54,4.34-5.115,9.765-5.115a15.215,15.215,0,0,1,4.185.62q5.425,8.99,7.13,22.475.465,3.875,1.395,24.025,1.705,6.82-2.015,7.905a24.743,24.743,0,0,1-6.51,1.24q-3.565,0-4.03-2.635-.775-5.89-1.4-19.22A119.355,119.355,0,0,0,144.15-44.8q-4.34,4.805-8.06,14.725-4.8,12.4-6.82,15.888a6.55,6.55,0,0,1-6.045,3.488q-4.185,0-5.425-4.8a37.322,37.322,0,0,1-.62-8.99Q117.645-34.565,117.645-33.635Zm17.05-49.29q1.395.155,2.867,4.573a26.287,26.287,0,0,1,1.473,8.292q0,4.5-2.79,4.5-3.41,0-9.455-9.765a4.127,4.127,0,0,1-.465-1.86q0-2.325,2.945-4.185A8.305,8.305,0,0,1,134.7-82.925Zm20.925-.155a22.672,22.672,0,0,1-2.17,8.37q-2.635,5.89-5.27,5.89-2.325,0-3.72-5.425-.155-.62-1.085-7.285-.62-4.185,6.665-4.185Q155.62-85.715,155.62-83.08Zm16.12,13.795q.775,1.86-3.642,4.728t-7.208,2.092q-2.325-.62-2.325-4.03A19.57,19.57,0,0,1,161.2-75.95a2.012,2.012,0,0,1,1.86-1.085q2.17,0,4.96,2.79A17.075,17.075,0,0,1,171.74-69.285Zm1.705,35.65q0-2.48-.388-7.9t-.387-8.06a27.8,27.8,0,0,1,1.4-9.61q1.395-3.255,5.89-3.255,5.115,0,6.355,4.03a6.87,6.87,0,0,1,.31,2.17,20.348,20.348,0,0,1-.852,4.727,20.475,20.475,0,0,0-.852,4.882q1.395,1.24,1.395,1.86,5.27-8.68,6.975-10.54,4.34-5.115,9.765-5.115a15.215,15.215,0,0,1,4.185.62q5.425,8.99,7.13,22.475.465,3.875,1.4,24.025,1.7,6.82-2.015,7.905a24.743,24.743,0,0,1-6.51,1.24q-3.565,0-4.03-2.635-.775-5.89-1.4-19.22A119.355,119.355,0,0,0,199.95-44.8q-4.34,4.805-8.06,14.725-4.805,12.4-6.82,15.888a6.55,6.55,0,0,1-6.045,3.488q-4.185,0-5.425-4.8a37.322,37.322,0,0,1-.62-8.99Q173.445-34.565,173.445-33.635Zm17.05-49.29q1.4.155,2.868,4.573a26.288,26.288,0,0,1,1.473,8.292q0,4.5-2.79,4.5-3.41,0-9.455-9.765a4.127,4.127,0,0,1-.465-1.86q0-2.325,2.945-4.185A8.305,8.305,0,0,1,190.495-82.925Zm20.925-.155a22.672,22.672,0,0,1-2.17,8.37q-2.635,5.89-5.27,5.89-2.325,0-3.72-5.425-.155-.62-1.085-7.285-.62-4.185,6.665-4.185Q211.42-85.715,211.42-83.08Zm16.12,13.795q.775,1.86-3.643,4.728t-7.208,2.092q-2.325-.62-2.325-4.03A19.57,19.57,0,0,1,217-75.95a2.012,2.012,0,0,1,1.86-1.085q2.17,0,4.96,2.79A17.076,17.076,0,0,1,227.54-69.285Zm1.085,7.9-.62-5.58q0-3.565,1.4-5.115a8.345,8.345,0,0,1,7.44-3.72q4.65,0,6.355,3.72,2.17,4.65,2.015,12.865-.155,10.54.31,13.175.31,1.085.93,1.085.465,0,2.17-1.86,3.41-7.6,6.665-15.035,4.34-8.37,10.23-11.78a9,9,0,0,1,4.34-.93q6.355,0,6.355,4.34a6.352,6.352,0,0,1-.775,2.79l-12.71,22.94q-7.13,13.8-7.9,25.265-1.085,12.71-8.68,26.66-8.99,16.9-20.3,16.9-7.75,0-10.385-5.27t-2.635-8.835a6.293,6.293,0,0,1,3.255-5.89,4.647,4.647,0,0,1,2.48-.775,6.781,6.781,0,0,1,4.8,2.092,8.564,8.564,0,0,1,2.635,4.727Q233.12,4.8,234.98,0q1.395-6.82,2.945-13.8a12.826,12.826,0,0,0,.31-2.79q0-3.72-3.1-10.385t-3.41-9.765Q230.64-44.8,228.625-61.38Z" transform="translate(2258.948 789.701)" fill="#01adb7"/>
    </g>
  </g>
</svg>
