<svg xmlns="http://www.w3.org/2000/svg" xmlns:xlink="http://www.w3.org/1999/xlink" width="625.838" height="162.56" viewBox="0 0 625.838 162.56">
  <defs>
    <linearGradient id="linear-gradient" x1="0.5" x2="0.5" y2="1" gradientUnits="objectBoundingBox">
      <stop offset="0" stop-color="#01adb7"/>
      <stop offset="1" stop-color="#f9a197"/>
    </linearGradient>
    <linearGradient id="linear-gradient-3" x1="0.65" y1="0.375" x2="0.136" y2="0.96" gradientUnits="objectBoundingBox">
      <stop offset="0" stop-color="#01adb7"/>
      <stop offset="0.467" stop-color="#f9a197"/>
      <stop offset="1" stop-color="#f9a197"/>
    </linearGradient>
  </defs>
  <g id="Group_18" data-name="Group 18" transform="translate(-534.835 -490)">
    <g id="Group_5" data-name="Group 5" transform="translate(222.306 336.875)">
      <path id="Path_24" data-name="Path 24" d="M351.7,192.381a1.854,1.854,0,0,0,1.663,2.849,9.754,9.754,0,0,1,5.748,1.753,1.855,1.855,0,0,0,2.971-1.436c.161-3.08-1.262-5.777-3.687-6.516S353.284,189.733,351.7,192.381Z" transform="translate(-7.798 -7.165)" fill="url(#linear-gradient)"/>
      <path id="Path_25" data-name="Path 25" d="M478.491,198.289a9.767,9.767,0,0,1,6-.289,1.853,1.853,0,0,0,2.311-2.353c-.884-2.954-3.135-5.013-5.668-4.891s-4.574,2.386-5.173,5.413A1.853,1.853,0,0,0,478.491,198.289Z" transform="translate(-32.78 -7.549)" fill="url(#linear-gradient)"/>
      <path id="Path_26" data-name="Path 26" d="M483.647,308.971a14.008,14.008,0,0,0,2.212-7.551c0-7.529-5.859-14.345-16.183-15.037a3.2,3.2,0,0,0-.446-.083c-13.8-14.155-20.132-48.441-16.378-69.043,12.56-.98,21.394-8.358,24.693-20.955,1.458-5.569-1.129-9.86-6.484-10.88a6.707,6.707,0,0,1-5.335-4.764c-.031-.086-.065-.171-.1-.254-5.066-11.23-13.837-12.621-19.652-13.136,0-.022.022-.066,0-.066-2.1.122-4.708.113-3.317-1.431,3.712-4.117,4.364-6.062,4.792-7.559.944-3.307-2.564-5.467-5.193-5.033-14.439,2.384-28.594,15.281-36.075,32.766-.978,2.285-2.64,6.206-4.72,11.239-2.641-6.342-8.018-21.625-23.512-29.674a37.961,37.961,0,0,0-20.542-4.225c-5.851.357-18.014,1.094-24.572,15.8-.2.2-1.8,1.552-8.7,2.291a79.174,79.174,0,0,1-8.2.416h-.039a3.359,3.359,0,0,0-3.357,3.314c-.245,19.051,8.342,27.349,14.784,30.888a.271.271,0,0,0,.025.017c3.879,2.336,8.779,2.886,13.325,2.886,2.466,0,4.711-.16,6.384-.328,1.261,7.963,3.607,40.177-12.342,67.825-10.237.76-16,7.576-16,15.028a14.009,14.009,0,0,0,2.212,7.551s3.619,6.713,14.668,6.713h36.076a3.357,3.357,0,1,0,0-6.713H334.48c-6.257,0-9.058-3.794-9.058-7.551,0-4.784,4.178-8.162,10.6-8.364,2.946.654,6.515,2.325,7.981,6.5a3.357,3.357,0,1,0,6.336-2.223,16.074,16.074,0,0,0-8.761-9.477c14.945-27.3,13.815-58.754,12.186-69.523a29.463,29.463,0,0,0-1.237-4.828,3.355,3.355,0,0,0-3.606-1.94c-2.919.477-10.861,1.313-16.362-.532q-.24-.082-.464-.167c-6.017-2.622-10-7.776-11.78-15.13,2.179-.494,5.337-2.271,7.39-8.071,6.337-1,9.932-2.862,11.229-5.785,3.1-6.987,7.509-9.826,12.384-11.041,2.522-.628,9.02-1.508,14.545,2.191a9.5,9.5,0,0,1,3.538,4.894c1.249,3.613.346,7.652-2.543,11.37-7.487,9.636-9.377,14.553-8.686,20.946a11.836,11.836,0,0,0,6.186,9.3,16.285,16.285,0,0,0,16.152-.214c5.253-3.243,8.3-9.014,9.771-18.743,0-.018.008-.035.011-.054a44.748,44.748,0,0,0-5.785-10.876,32.623,32.623,0,0,1-.213,9.748c-1.6,7.266-2.623,10.91-6.708,13.879a9.572,9.572,0,0,1-9.972.388,5.157,5.157,0,0,1-2.766-4.154c-.374-3.457.013-6.712,7.312-16.106,4.6-5.919,6.055-13.425,2.554-20.047a21.275,21.275,0,0,1,2.725,1.657v0a42.545,42.545,0,0,1,9.581,9.277c1.42,1.83,6.4,8.393,10.837,21.709-10.152,25.211-25,64.832-25,80.926a28.747,28.747,0,0,0,57.494,0c0-8.713-5.192-27.3-15.43-55.234-2.341-6.384-4.715-12.621-6.939-18.311l-3.411,9.708c8.967,23.514,19.064,52.87,19.064,63.838a22.032,22.032,0,1,1-44.063,0c0-17.011,19.094-64.989,25.519-80.85l0-.01c3.584-8.85,6.362-15.386,7.263-17.491,4.76-11.13,14.383-23.151,26.105-27.467-8.76,8.389-5.623,12.783-2.417,12.783h8.68c5.4.444,11.029,1.051,14.729,9.148a13.493,13.493,0,0,0,7.805,8.236c-.785,1.97-1.391,5.349,2.508,7.114-2.953,6.973-9.425,13.471-23.444,12.07a3.357,3.357,0,0,0-.667,6.681c.134.014.266.021.4.034-1.73,10.709-1.1,24.725,1.755,38.088,2.969,13.887,7.992,25.44,14.347,33.176a15.959,15.959,0,0,0-7.585,8.888,3.357,3.357,0,1,0,6.335,2.223c1.459-4.158,5-5.832,7.935-6.494,13.88.651,13.279,15.9,1.246,15.9h-38.5a3.357,3.357,0,0,0,0,6.713h38.5C480.706,315.684,483.647,308.971,483.647,308.971Z" transform="translate(0)" fill="url(#linear-gradient-3)"/>
    </g>
    <g id="Group_6" data-name="Group 6" transform="translate(-1375.276 -164.429)">
      <text id="Pet" transform="translate(2107.812 784.429)" fill="#f9a197" font-size="155" font-family="GoodDogCool, GoodDog Cool" letter-spacing="-0.1em"><tspan x="0" y="0">Pet</tspan></text>
      <text id="Funny" transform="translate(2258.948 789.701)" fill="#01adb7" font-size="155" font-family="GoodDogCool, GoodDog Cool"><tspan x="0" y="0">Funny</tspan></text>
    </g>
  </g>
</svg>
